<svg width="14" height="15" viewBox="0 0 14 15" fill="none" xmlns="http://www.w3.org/2000/svg">
<path fill-rule="evenodd" clip-rule="evenodd" d="M0.583008 7.50065C0.583008 3.95682 3.45585 1.08398 6.99968 1.08398C10.5435 1.08398 13.4163 3.95682 13.4163 7.50065C13.4163 11.0445 10.5435 13.9173 6.99968 13.9173C3.45584 13.9173 0.583008 11.0444 0.583008 7.50065ZM6.99968 2.25065C4.10018 2.25065 1.74967 4.60116 1.74967 7.50065C1.74967 10.4001 4.10018 12.7507 6.99968 12.7507C9.89914 12.7507 12.2497 10.4001 12.2497 7.50065C12.2497 4.60116 9.89915 2.25065 6.99968 2.25065Z" fill="#747474"/>
<path fill-rule="evenodd" clip-rule="evenodd" d="M6.99935 6.91699C7.32152 6.91699 7.58268 7.17816 7.58268 7.50033V9.83366C7.58268 10.1558 7.32152 10.417 6.99935 10.417C6.67718 10.417 6.41602 10.1558 6.41602 9.83366V7.50033C6.41602 7.17816 6.67718 6.91699 6.99935 6.91699Z" fill="#747474"/>
<path fill-rule="evenodd" clip-rule="evenodd" d="M6.41602 5.16732C6.41602 4.84515 6.67718 4.58398 6.99935 4.58398H7.00518C7.32735 4.58398 7.58852 4.84515 7.58852 5.16732C7.58852 5.48948 7.32735 5.75065 7.00518 5.75065H6.99935C6.67718 5.75065 6.41602 5.48948 6.41602 5.16732Z" fill="#747474"/>
</svg>
